<?xml version="1.0" encoding="UTF-8"?>
<svg id="a" data-name="Layer 1" xmlns="http://www.w3.org/2000/svg" width="108" height="108" viewBox="0 0 108 108">
  <path d="M0,0V108H108V0H0ZM64.438,22.24h7.598v4.417c-1.061-.177-2.297-.265-3.534-.265-1.414,0-2.739,.089-4.064,.265v-4.417Zm0,6.184c1.326-.176,2.651-.265,4.064-.265,1.237,0,2.385,.088,3.534,.265,11.573,1.06,17.757,7.951,19.789,18.817l-6.98,1.413c-1.678-7.421-5.566-12.28-12.809-13.34-1.148-.265-2.297-.353-3.622-.353-1.414,0-2.739,.088-3.976,.353-6.626,1.237-11.485,5.654-12.898,13.163h-7.598c1.943-11.484,9.895-18.641,20.496-20.054ZM27.688,85.76h-7.686V22.24h7.686v28.005h36.751v-13.075c.088,0,.265-.088,.354-.088,1.06-.265,2.12-.354,3.622-.354,1.325,0,2.297,.088,3.269,.265,.088,0,.265,0,.354,.088v33.835c-.088,.088-.177,.088-.265,.088-.972,.177-1.943,.265-3.092,.265-1.237,0-2.562-.177-3.887-.442-.088,0-.265-.088-.354-.088v-13.163H27.688v28.182Zm44.349,0h-7.598v-4.506c1.237,.265,2.651,.353,4.506,.353,1.06,0,2.12-.088,3.092-.265v4.417Zm0-6.184c-.972,.176-2.032,.265-3.092,.265-1.59,0-3.092-.088-4.506-.353-11.219-1.501-18.729-8.746-20.496-20.142h7.598c1.413,7.244,6.096,11.927,12.898,13.252,1.326,.265,2.739,.442,4.241,.442,1.236,0,2.296-.088,3.357-.265,8.304-1.149,11.131-6.89,12.986-13.958l6.979,1.59c-2.209,11.22-8.481,18.287-19.965,19.171Z" fill="#f1f1f1"/>
</svg>