<?xml version="1.0" encoding="UTF-8"?>
<svg xmlns="http://www.w3.org/2000/svg" width="402.686" height="108" viewBox="0 0 402.686 108">
  <g id="a" data-name="Layer 1"/>
  <g id="b" data-name="Layer 2">
    <g id="c" data-name="Layer 1">
      <g>
        <path d="M128.873,47.695V12.785h3.055v14.487h14.4V12.785h3.055V47.695h-3.055V30.022h-14.4v17.673h-3.055Z" fill="#f1f1f1"/>
        <path d="M164.043,48.131c-2.415,0-4.407-.633-5.978-1.898-1.571-1.265-2.356-3.12-2.356-5.563,0-2.182,.676-3.898,2.029-5.149,1.353-1.25,3.12-1.876,5.302-1.876h9.251v-4.407c0-1.542-.517-2.829-1.549-3.862-1.033-1.032-2.596-1.549-4.691-1.549s-3.629,.327-4.604,.982c-.975,.654-1.753,1.942-2.334,3.862l-2.706-.742c.611-2.356,1.687-4.087,3.229-5.193,1.542-1.105,3.666-1.658,6.371-1.658,2.792,0,5.047,.676,6.764,2.029,1.716,1.353,2.574,3.324,2.574,5.913v11.694c0,2.007,.393,3.302,1.178,3.884,.786,.582,2.138,.713,4.059,.393v2.836c-1.92,.291-3.521,.124-4.8-.502-1.28-.625-2.007-1.912-2.182-3.862h-.611c-.873,1.368-2.088,2.487-3.644,3.36-1.556,.873-3.324,1.309-5.302,1.309Zm.349-2.575c1.6,0,3.055-.312,4.364-.938s2.487-1.651,3.535-3.077v-5.498h-8.771c-1.455,0-2.633,.313-3.535,.938-.902,.626-1.353,1.768-1.353,3.426,0,1.629,.458,2.895,1.375,3.796,.917,.902,2.378,1.353,4.385,1.353Z" fill="#f1f1f1"/>
        <path d="M187.345,47.695V21.513h3.054v4.363h.786c.901-1.716,2.014-2.945,3.338-3.687,1.323-.742,2.799-1.113,4.429-1.113,2.124,0,3.833,.648,5.127,1.942,1.294,1.295,1.942,3.12,1.942,5.476v3.273h-2.967v-2.575c0-1.658-.408-2.952-1.222-3.883-.815-.931-2.081-1.396-3.796-1.396-1.484,0-2.852,.386-4.102,1.156-1.251,.771-2.429,1.942-3.535,3.513v19.113h-3.054Z" fill="#f1f1f1"/>
        <path d="M214.224,27.622v20.073h-2.924V21.513h2.924v3.491h.611c.552-1.192,1.244-2.145,2.073-2.858,.829-.712,1.811-1.069,2.945-1.069,1.164,0,2.153,.342,2.967,1.025,.814,.684,1.411,1.651,1.789,2.902h.655c.552-1.192,1.287-2.145,2.204-2.858,.917-.712,1.985-1.069,3.207-1.069,1.571,0,2.822,.633,3.753,1.898,.931,1.266,1.396,2.989,1.396,5.171v19.549h-2.924V28.713c0-1.745-.248-3.033-.742-3.862-.495-.829-1.251-1.244-2.269-1.244-.786,0-1.571,.349-2.356,1.047s-1.629,1.688-2.531,2.967v20.073h-2.88V28.713c0-1.745-.255-3.033-.764-3.862-.509-.829-1.273-1.244-2.291-1.244-.786,0-1.564,.342-2.334,1.025-.771,.684-1.608,1.68-2.509,2.989Z" fill="#f1f1f1"/>
        <path d="M251.707,48.131c-3.288,0-5.819-.851-7.593-2.553-1.775-1.702-2.662-4.152-2.662-7.353v-7.069c0-3.258,.895-5.752,2.684-7.484,1.789-1.73,4.327-2.596,7.615-2.596s5.811,.866,7.571,2.596c1.76,1.731,2.64,4.226,2.64,7.484v7.069c0,3.201-.888,5.651-2.662,7.353-1.774,1.702-4.306,2.553-7.592,2.553Zm0-2.749c2.443,0,4.254-.582,5.433-1.746,1.178-1.163,1.767-2.967,1.767-5.411v-7.069c0-2.501-.589-4.349-1.767-5.542-1.178-1.192-2.989-1.789-5.433-1.789s-4.255,.597-5.433,1.789c-1.178,1.193-1.767,3.041-1.767,5.542v7.069c0,2.444,.589,4.248,1.767,5.411,1.178,1.164,2.989,1.746,5.433,1.746Z" fill="#f1f1f1"/>
        <path d="M269.597,47.695V21.513h3.055v4.363h.786c.727-1.483,1.847-2.654,3.36-3.513,1.512-.857,3.17-1.287,4.975-1.287,2.56,0,4.588,.779,6.087,2.334,1.498,1.557,2.248,3.673,2.248,6.349v17.935h-3.055V30.371c0-2.094-.495-3.687-1.483-4.778-.989-1.091-2.43-1.636-4.32-1.636-1.513,0-2.989,.393-4.429,1.178-1.44,.786-2.83,1.949-4.167,3.491v19.069h-3.055Z" fill="#f1f1f1"/>
        <path d="M297.742,47.695v-2.749h8.728V24.262h-8.728v-2.749h11.782v23.433h8.728v2.749h-20.509Zm10.255-31.505c-.815,0-1.484-.138-2.007-.415-.524-.276-.786-.792-.786-1.549v-.305c0-.786,.262-1.324,.786-1.615,.523-.291,1.192-.437,2.007-.437s1.483,.146,2.007,.437c.524,.291,.786,.829,.786,1.615v.305c0,.757-.262,1.273-.786,1.549-.523,.277-1.193,.415-2.007,.415Z" fill="#f1f1f1"/>
        <path d="M336.753,48.131c-3.55,0-6.248-.844-8.095-2.531-1.848-1.687-2.771-4.146-2.771-7.375v-7.069c0-3.287,.917-5.789,2.749-7.505,1.833-1.716,4.523-2.575,8.073-2.575,3.258,0,5.716,.691,7.375,2.073,1.658,1.382,2.589,3.469,2.793,6.262l-2.967,.218c-.204-2.095-.851-3.585-1.942-4.473-1.091-.887-2.858-1.331-5.302-1.331-2.618,0-4.56,.597-5.826,1.789-1.265,1.193-1.898,3.041-1.898,5.542v7.069c0,2.444,.64,4.255,1.92,5.433,1.28,1.178,3.244,1.767,5.891,1.767,2.443,0,4.218-.385,5.323-1.156,1.105-.771,1.716-2.043,1.833-3.818l2.967,.218c-.175,2.531-1.091,4.407-2.749,5.629-1.658,1.222-4.117,1.833-7.375,1.833Z" fill="#f1f1f1"/>
        <path d="M139.563,96.131c-3.811,0-6.691-1.04-8.64-3.12-1.949-2.08-2.923-5.127-2.923-9.142v-11.083c0-4.072,.982-7.163,2.945-9.272,1.964-2.109,4.851-3.164,8.662-3.164,3.636,0,6.399,.895,8.291,2.684,1.891,1.789,2.938,4.619,3.142,8.487l-3.055,.305c-.291-3.258-1.047-5.527-2.269-6.807-1.222-1.28-3.273-1.92-6.153-1.92-3.054,0-5.236,.764-6.545,2.291-1.309,1.527-1.963,4.08-1.963,7.658v10.56c0,3.521,.654,6.029,1.963,7.527,1.309,1.499,3.491,2.248,6.545,2.248,2.938,0,5.047-.647,6.327-1.942,1.28-1.294,1.978-3.498,2.095-6.611l3.055,.305c-.087,3.695-1.084,6.452-2.989,8.269-1.906,1.818-4.734,2.728-8.487,2.728Z" fill="#f1f1f1"/>
        <path d="M167.272,96.131c-3.288,0-5.819-.851-7.593-2.553-1.775-1.702-2.662-4.152-2.662-7.353v-7.069c0-3.258,.895-5.752,2.684-7.484,1.789-1.73,4.327-2.596,7.615-2.596s5.811,.866,7.571,2.596c1.76,1.731,2.64,4.226,2.64,7.484v7.069c0,3.201-.888,5.651-2.662,7.353-1.774,1.702-4.306,2.553-7.592,2.553Zm0-2.749c2.443,0,4.254-.582,5.433-1.746,1.178-1.163,1.767-2.967,1.767-5.411v-7.069c0-2.501-.589-4.349-1.767-5.542-1.178-1.192-2.989-1.789-5.433-1.789s-4.255,.597-5.433,1.789c-1.178,1.193-1.767,3.041-1.767,5.542v7.069c0,2.444,.589,4.248,1.767,5.411,1.178,1.164,2.989,1.746,5.433,1.746Z" fill="#f1f1f1"/>
        <path d="M185.163,95.695v-2.749h8.728v-29.411h-8.728v-2.749h11.782v32.16h8.728v2.749h-20.509Z" fill="#f1f1f1"/>
        <path d="M213.307,95.695v-2.749h8.728v-29.411h-8.728v-2.749h11.782v32.16h8.728v2.749h-20.509Z" fill="#f1f1f1"/>
        <path d="M261.831,90.283c-.728,2.066-1.854,3.557-3.382,4.473-1.527,.916-3.76,1.375-6.698,1.375-3.229,0-5.753-.836-7.571-2.509-1.818-1.672-2.728-4.152-2.728-7.44v-7.025c0-3.375,.953-5.898,2.858-7.571,1.905-1.673,4.385-2.509,7.44-2.509,3.083,0,5.556,.851,7.418,2.553,1.861,1.702,2.793,4.313,2.793,7.833v3.622h-17.455v3.142c0,2.561,.596,4.407,1.789,5.542,1.192,1.134,2.996,1.702,5.411,1.702,2.21,0,3.818-.32,4.822-.96,1.003-.64,1.781-1.687,2.334-3.142l2.967,.916Zm-17.324-11.127v1.527h14.4v-1.135c0-2.706-.604-4.676-1.811-5.913-1.208-1.236-3.004-1.854-5.389-1.854s-4.183,.597-5.389,1.789c-1.208,1.193-1.811,3.055-1.811,5.585Z" fill="#f1f1f1"/>
        <path d="M280.463,96.131c-3.55,0-6.248-.844-8.095-2.531-1.848-1.687-2.771-4.146-2.771-7.375v-7.069c0-3.287,.917-5.789,2.749-7.505,1.833-1.716,4.523-2.575,8.073-2.575,3.258,0,5.716,.691,7.375,2.073,1.658,1.382,2.589,3.469,2.793,6.262l-2.967,.218c-.204-2.095-.851-3.585-1.942-4.473-1.091-.887-2.858-1.331-5.302-1.331-2.618,0-4.56,.597-5.826,1.789-1.265,1.193-1.898,3.041-1.898,5.542v7.069c0,2.444,.64,4.255,1.92,5.433,1.28,1.178,3.244,1.767,5.891,1.767,2.443,0,4.218-.385,5.323-1.156,1.105-.771,1.716-2.043,1.833-3.818l2.967,.218c-.175,2.531-1.091,4.407-2.749,5.629-1.658,1.222-4.117,1.833-7.375,1.833Z" fill="#f1f1f1"/>
        <path d="M312.579,96.087c-2.735,0-4.873-.734-6.415-2.204-1.542-1.469-2.312-3.6-2.312-6.393v-15.229h-7.418v-2.749h7.418v-8.728h3.054v8.728h11.346v2.749h-11.346v14.836c0,2.094,.487,3.644,1.462,4.647,.975,1.004,2.465,1.505,4.473,1.505,.844,0,1.716-.094,2.618-.283,.901-.189,1.789-.429,2.662-.72l.611,2.749c-.932,.349-1.92,.619-2.967,.807-1.047,.189-2.109,.284-3.186,.284Z" fill="#f1f1f1"/>
        <path d="M325.887,95.695v-2.749h8.728v-20.684h-8.728v-2.749h11.782v23.433h8.728v2.749h-20.509Zm10.255-31.505c-.815,0-1.484-.138-2.007-.415-.524-.276-.786-.792-.786-1.549v-.305c0-.786,.262-1.324,.786-1.615,.523-.291,1.192-.437,2.007-.437s1.483,.146,2.007,.437c.524,.291,.786,.829,.786,1.615v.305c0,.757-.262,1.273-.786,1.549-.523,.277-1.193,.415-2.007,.415Z" fill="#f1f1f1"/>
        <path d="M364.287,96.131c-3.288,0-5.819-.851-7.593-2.553-1.775-1.702-2.662-4.152-2.662-7.353v-7.069c0-3.258,.895-5.752,2.684-7.484,1.789-1.73,4.327-2.596,7.615-2.596s5.811,.866,7.571,2.596c1.76,1.731,2.64,4.226,2.64,7.484v7.069c0,3.201-.888,5.651-2.662,7.353-1.774,1.702-4.306,2.553-7.592,2.553Zm0-2.749c2.443,0,4.254-.582,5.433-1.746,1.178-1.163,1.767-2.967,1.767-5.411v-7.069c0-2.501-.589-4.349-1.767-5.542-1.178-1.192-2.989-1.789-5.433-1.789s-4.255,.597-5.433,1.789c-1.178,1.193-1.767,3.041-1.767,5.542v7.069c0,2.444,.589,4.248,1.767,5.411,1.178,1.164,2.989,1.746,5.433,1.746Z" fill="#f1f1f1"/>
        <path d="M382.177,95.695v-26.182h3.055v4.363h.786c.727-1.483,1.847-2.654,3.36-3.513,1.512-.857,3.17-1.287,4.975-1.287,2.56,0,4.588,.779,6.087,2.334,1.498,1.557,2.248,3.673,2.248,6.349v17.935h-3.055v-17.324c0-2.094-.495-3.687-1.483-4.778-.989-1.091-2.43-1.636-4.32-1.636-1.513,0-2.989,.393-4.429,1.178-1.44,.786-2.83,1.949-4.167,3.491v19.069h-3.055Z" fill="#f1f1f1"/>
      </g>
      <path d="M0,0V108H108V0H0ZM62.437,22.24h7.598v4.417c-1.061-.177-2.297-.265-3.534-.265-1.414,0-2.739,.088-4.064,.265v-4.417Zm0,6.184c1.326-.176,2.651-.265,4.064-.265,1.237,0,2.385,.088,3.534,.265,11.573,1.06,17.757,7.951,19.789,18.817l-6.98,1.414c-1.678-7.421-5.566-12.28-12.809-13.34-1.148-.265-2.297-.353-3.622-.353-1.414,0-2.739,.088-3.976,.353-6.626,1.237-11.485,5.654-12.898,13.163h-7.598c1.943-11.485,9.895-18.641,20.496-20.054ZM25.686,85.76h-7.686V22.24h7.686v28.005H62.437v-13.075c.088,0,.265-.088,.354-.088,1.06-.265,2.12-.354,3.622-.354,1.325,0,2.297,.088,3.269,.265,.088,0,.265,0,.354,.088v33.835c-.088,.088-.177,.088-.265,.088-.972,.177-1.943,.265-3.092,.265-1.237,0-2.562-.177-3.887-.442-.088,0-.265-.088-.354-.088v-13.163H25.686v28.182Zm44.349,0h-7.598v-4.506c1.237,.265,2.651,.353,4.506,.353,1.06,0,2.12-.088,3.092-.265v4.417Zm0-6.184c-.972,.176-2.032,.265-3.092,.265-1.59,0-3.092-.088-4.506-.353-11.219-1.502-18.729-8.746-20.496-20.142h7.598c1.413,7.244,6.096,11.927,12.898,13.252,1.326,.265,2.739,.442,4.241,.442,1.236,0,2.296-.088,3.357-.265,8.304-1.149,11.131-6.89,12.986-13.958l6.979,1.59c-2.209,11.22-8.481,18.287-19.965,19.171Z" fill="#f1f1f1"/>
    </g>
  </g>
</svg>