<?xml version="1.0" encoding="UTF-8"?>
<svg xmlns="http://www.w3.org/2000/svg" width="108" height="402.686" viewBox="0 0 108 402.686">
  <g id="a" data-name="Layer 1"/>
  <g id="b" data-name="Layer 2">
    <g id="c" data-name="Layer 1">
      <g>
        <path d="M60.305,128.873h34.909v3.055h-14.487v14.4h14.487v3.055H60.305v-3.055h17.673v-14.4h-17.673v-3.055Z" fill="#f1f1f1"/>
        <path d="M59.869,164.043c0-2.415,.633-4.407,1.898-5.978,1.265-1.571,3.12-2.356,5.563-2.356,2.182,0,3.898,.676,5.149,2.029,1.25,1.353,1.876,3.12,1.876,5.302v9.251h4.407c1.542,0,2.829-.517,3.862-1.549,1.032-1.033,1.549-2.596,1.549-4.691s-.327-3.629-.982-4.604c-.654-.975-1.942-1.753-3.862-2.334l.742-2.706c2.356,.611,4.087,1.687,5.193,3.229,1.105,1.542,1.658,3.666,1.658,6.371,0,2.792-.676,5.047-2.029,6.764-1.353,1.716-3.324,2.574-5.913,2.574h-11.694c-2.007,0-3.302,.393-3.884,1.178-.582,.786-.713,2.138-.393,4.059h-2.836c-.291-1.92-.124-3.521,.502-4.8,.625-1.28,1.912-2.007,3.862-2.182v-.611c-1.368-.873-2.487-2.088-3.36-3.644-.873-1.556-1.309-3.324-1.309-5.302Zm2.575,.349c0,1.6,.312,3.055,.938,4.364s1.651,2.487,3.077,3.535h5.498v-8.771c0-1.455-.313-2.633-.938-3.535-.626-.902-1.768-1.353-3.426-1.353-1.629,0-2.895,.458-3.796,1.375-.902,.917-1.353,2.378-1.353,4.385Z" fill="#f1f1f1"/>
        <path d="M60.305,187.345h26.182v3.054h-4.363v.786c1.716,.901,2.945,2.014,3.687,3.338,.742,1.323,1.113,2.799,1.113,4.429,0,2.124-.648,3.833-1.942,5.127-1.295,1.294-3.12,1.942-5.476,1.942h-3.273v-2.967h2.575c1.658,0,2.952-.408,3.883-1.222,.931-.815,1.396-2.081,1.396-3.796,0-1.484-.386-2.852-1.156-4.102-.771-1.251-1.942-2.429-3.513-3.535h-19.113v-3.054Z" fill="#f1f1f1"/>
        <path d="M80.378,214.224h-20.073v-2.924h26.182v2.924h-3.491v.611c1.192,.552,2.145,1.244,2.858,2.073,.712,.829,1.069,1.811,1.069,2.945,0,1.164-.342,2.153-1.025,2.967-.684,.814-1.651,1.411-2.902,1.789v.655c1.192,.552,2.145,1.287,2.858,2.204,.712,.917,1.069,1.985,1.069,3.207,0,1.571-.633,2.822-1.898,3.753-1.266,.931-2.989,1.396-5.171,1.396h-19.549v-2.924h18.982c1.745,0,3.033-.248,3.862-.742,.829-.495,1.244-1.251,1.244-2.269,0-.786-.349-1.571-1.047-2.356s-1.688-1.629-2.967-2.531h-20.073v-2.88h18.982c1.745,0,3.033-.255,3.862-.764,.829-.509,1.244-1.273,1.244-2.291,0-.786-.342-1.564-1.025-2.334-.684-.771-1.68-1.608-2.989-2.509Z" fill="#f1f1f1"/>
        <path d="M59.869,251.707c0-3.288,.851-5.819,2.553-7.593,1.702-1.775,4.152-2.662,7.353-2.662h7.069c3.258,0,5.752,.895,7.484,2.684,1.73,1.789,2.596,4.327,2.596,7.615s-.866,5.811-2.596,7.571c-1.731,1.76-4.226,2.64-7.484,2.64h-7.069c-3.201,0-5.651-.888-7.353-2.662-1.702-1.774-2.553-4.306-2.553-7.592Zm2.749,0c0,2.443,.582,4.254,1.746,5.433,1.163,1.178,2.967,1.767,5.411,1.767h7.069c2.501,0,4.349-.589,5.542-1.767,1.192-1.178,1.789-2.989,1.789-5.433s-.597-4.255-1.789-5.433c-1.193-1.178-3.041-1.767-5.542-1.767h-7.069c-2.444,0-4.248,.589-5.411,1.767-1.164,1.178-1.746,2.989-1.746,5.433Z" fill="#f1f1f1"/>
        <path d="M60.305,269.597h26.182v3.055h-4.363v.786c1.483,.727,2.654,1.847,3.513,3.36,.857,1.512,1.287,3.17,1.287,4.975,0,2.56-.779,4.588-2.334,6.087-1.557,1.498-3.673,2.248-6.349,2.248h-17.935v-3.055h17.324c2.094,0,3.687-.495,4.778-1.483,1.091-.989,1.636-2.43,1.636-4.32,0-1.513-.393-2.989-1.178-4.429-.786-1.44-1.949-2.83-3.491-4.167h-19.069v-3.055Z" fill="#f1f1f1"/>
        <path d="M60.305,297.742h2.749v8.728h20.684v-8.728h2.749v11.782h-23.433v8.728h-2.749v-20.509Zm31.505,10.255c0-.815,.138-1.484,.415-2.007,.276-.524,.792-.786,1.549-.786h.305c.786,0,1.324,.262,1.615,.786,.291,.523,.437,1.192,.437,2.007s-.146,1.483-.437,2.007c-.291,.524-.829,.786-1.615,.786h-.305c-.757,0-1.273-.262-1.549-.786-.277-.523-.415-1.193-.415-2.007Z" fill="#f1f1f1"/>
        <path d="M59.869,336.753c0-3.55,.844-6.248,2.531-8.095,1.687-1.848,4.146-2.771,7.375-2.771h7.069c3.287,0,5.789,.917,7.505,2.749,1.716,1.833,2.575,4.523,2.575,8.073,0,3.258-.691,5.716-2.073,7.375-1.382,1.658-3.469,2.589-6.262,2.793l-.218-2.967c2.095-.204,3.585-.851,4.473-1.942,.887-1.091,1.331-2.858,1.331-5.302,0-2.618-.597-4.56-1.789-5.826-1.193-1.265-3.041-1.898-5.542-1.898h-7.069c-2.444,0-4.255,.64-5.433,1.92-1.178,1.28-1.767,3.244-1.767,5.891,0,2.443,.385,4.218,1.156,5.323,.771,1.105,2.043,1.716,3.818,1.833l-.218,2.967c-2.531-.175-4.407-1.091-5.629-2.749-1.222-1.658-1.833-4.117-1.833-7.375Z" fill="#f1f1f1"/>
        <path d="M11.869,139.563c0-3.811,1.04-6.691,3.12-8.64,2.08-1.949,5.127-2.923,9.142-2.923h11.083c4.072,0,7.163,.982,9.272,2.945,2.109,1.964,3.164,4.851,3.164,8.662,0,3.636-.895,6.399-2.684,8.291-1.789,1.891-4.619,2.938-8.487,3.142l-.305-3.055c3.258-.291,5.527-1.047,6.807-2.269,1.28-1.222,1.92-3.273,1.92-6.153,0-3.054-.764-5.236-2.291-6.545-1.527-1.309-4.08-1.963-7.658-1.963h-10.56c-3.521,0-6.029,.654-7.527,1.963-1.499,1.309-2.248,3.491-2.248,6.545,0,2.938,.647,5.047,1.942,6.327,1.294,1.28,3.498,1.978,6.611,2.095l-.305,3.055c-3.695-.087-6.452-1.084-8.269-2.989-1.818-1.906-2.728-4.734-2.728-8.487Z" fill="#f1f1f1"/>
        <path d="M11.869,167.272c0-3.288,.851-5.819,2.553-7.593,1.702-1.775,4.152-2.662,7.353-2.662h7.069c3.258,0,5.752,.895,7.484,2.684,1.73,1.789,2.596,4.327,2.596,7.615s-.866,5.811-2.596,7.571c-1.731,1.76-4.226,2.64-7.484,2.64h-7.069c-3.201,0-5.651-.888-7.353-2.662-1.702-1.774-2.553-4.306-2.553-7.592Zm2.749,0c0,2.443,.582,4.254,1.746,5.433,1.163,1.178,2.967,1.767,5.411,1.767h7.069c2.501,0,4.349-.589,5.542-1.767,1.192-1.178,1.789-2.989,1.789-5.433s-.597-4.255-1.789-5.433c-1.193-1.178-3.041-1.767-5.542-1.767h-7.069c-2.444,0-4.248,.589-5.411,1.767-1.164,1.178-1.746,2.989-1.746,5.433Z" fill="#f1f1f1"/>
        <path d="M12.305,185.163h2.749v8.728h29.411v-8.728h2.749v11.782H15.054v8.728h-2.749v-20.509Z" fill="#f1f1f1"/>
        <path d="M12.305,213.307h2.749v8.728h29.411v-8.728h2.749v11.782H15.054v8.728h-2.749v-20.509Z" fill="#f1f1f1"/>
        <path d="M17.717,261.831c-2.066-.728-3.557-1.854-4.473-3.382-.916-1.527-1.375-3.76-1.375-6.698,0-3.229,.836-5.753,2.509-7.571,1.672-1.818,4.152-2.728,7.44-2.728h7.025c3.375,0,5.898,.953,7.571,2.858,1.673,1.905,2.509,4.385,2.509,7.44,0,3.083-.851,5.556-2.553,7.418-1.702,1.861-4.313,2.793-7.833,2.793h-3.622v-17.455h-3.142c-2.561,0-4.407,.596-5.542,1.789-1.134,1.192-1.702,2.996-1.702,5.411,0,2.21,.32,3.818,.96,4.822,.64,1.003,1.687,1.781,3.142,2.334l-.916,2.967Zm11.127-17.324h-1.527v14.4h1.135c2.706,0,4.676-.604,5.913-1.811,1.236-1.208,1.854-3.004,1.854-5.389s-.597-4.183-1.789-5.389c-1.193-1.208-3.055-1.811-5.585-1.811Z" fill="#f1f1f1"/>
        <path d="M11.869,280.463c0-3.55,.844-6.248,2.531-8.095,1.687-1.848,4.146-2.771,7.375-2.771h7.069c3.287,0,5.789,.917,7.505,2.749,1.716,1.833,2.575,4.523,2.575,8.073,0,3.258-.691,5.716-2.073,7.375-1.382,1.658-3.469,2.589-6.262,2.793l-.218-2.967c2.095-.204,3.585-.851,4.473-1.942,.887-1.091,1.331-2.858,1.331-5.302,0-2.618-.597-4.56-1.789-5.826-1.193-1.265-3.041-1.898-5.542-1.898h-7.069c-2.444,0-4.255,.64-5.433,1.92-1.178,1.28-1.767,3.244-1.767,5.891,0,2.443,.385,4.218,1.156,5.323,.771,1.105,2.043,1.716,3.818,1.833l-.218,2.967c-2.531-.175-4.407-1.091-5.629-2.749-1.222-1.658-1.833-4.117-1.833-7.375Z" fill="#f1f1f1"/>
        <path d="M11.913,312.579c0-2.735,.734-4.873,2.204-6.415,1.469-1.542,3.6-2.312,6.393-2.312h15.229v-7.418h2.749v7.418h8.728v3.054h-8.728v11.346h-2.749v-11.346h-14.836c-2.094,0-3.644,.487-4.647,1.462-1.004,.975-1.505,2.465-1.505,4.473,0,.844,.094,1.716,.283,2.618,.189,.901,.429,1.789,.72,2.662l-2.749,.611c-.349-.932-.619-1.92-.807-2.967-.189-1.047-.284-2.109-.284-3.186Z" fill="#f1f1f1"/>
        <path d="M12.305,325.887h2.749v8.728h20.684v-8.728h2.749v11.782H15.054v8.728h-2.749v-20.509Zm31.505,10.255c0-.815,.138-1.484,.415-2.007,.276-.524,.792-.786,1.549-.786h.305c.786,0,1.324,.262,1.615,.786,.291,.523,.437,1.192,.437,2.007s-.146,1.483-.437,2.007c-.291,.524-.829,.786-1.615,.786h-.305c-.757,0-1.273-.262-1.549-.786-.277-.523-.415-1.193-.415-2.007Z" fill="#f1f1f1"/>
        <path d="M11.869,364.287c0-3.288,.851-5.819,2.553-7.593,1.702-1.775,4.152-2.662,7.353-2.662h7.069c3.258,0,5.752,.895,7.484,2.684,1.73,1.789,2.596,4.327,2.596,7.615s-.866,5.811-2.596,7.571c-1.731,1.76-4.226,2.64-7.484,2.64h-7.069c-3.201,0-5.651-.888-7.353-2.662-1.702-1.774-2.553-4.306-2.553-7.592Zm2.749,0c0,2.443,.582,4.254,1.746,5.433,1.163,1.178,2.967,1.767,5.411,1.767h7.069c2.501,0,4.349-.589,5.542-1.767,1.192-1.178,1.789-2.989,1.789-5.433s-.597-4.255-1.789-5.433c-1.193-1.178-3.041-1.767-5.542-1.767h-7.069c-2.444,0-4.248,.589-5.411,1.767-1.164,1.178-1.746,2.989-1.746,5.433Z" fill="#f1f1f1"/>
        <path d="M12.305,382.177h26.182v3.055h-4.363v.786c1.483,.727,2.654,1.847,3.513,3.36,.857,1.512,1.287,3.17,1.287,4.975,0,2.56-.779,4.588-2.334,6.087-1.557,1.498-3.673,2.248-6.349,2.248H12.305v-3.055H29.629c2.094,0,3.687-.495,4.778-1.483,1.091-.989,1.636-2.43,1.636-4.32,0-1.513-.393-2.989-1.178-4.429-.786-1.44-1.949-2.83-3.491-4.167H12.305v-3.055Z" fill="#f1f1f1"/>
      </g>
      <path d="M108,0H0V108H108V0Zm-22.24,62.437v7.598h-4.417c.177-1.061,.265-2.297,.265-3.534,0-1.414-.088-2.739-.265-4.064h4.417Zm-6.184,0c.176,1.326,.265,2.651,.265,4.064,0,1.237-.088,2.385-.265,3.534-1.06,11.573-7.951,17.757-18.817,19.789l-1.414-6.98c7.421-1.678,12.28-5.566,13.34-12.809,.265-1.148,.353-2.297,.353-3.622,0-1.414-.088-2.739-.353-3.976-1.237-6.626-5.654-11.485-13.163-12.898v-7.598c11.485,1.943,18.641,9.895,20.054,20.496ZM22.24,25.686v-7.686h63.519v7.686h-28.005V62.437h13.075c0,.088,.088,.265,.088,.354,.265,1.06,.354,2.12,.354,3.622,0,1.325-.088,2.297-.265,3.269,0,.088,0,.265-.088,.354H37.083c-.088-.088-.088-.177-.088-.265-.177-.972-.265-1.943-.265-3.092,0-1.237,.177-2.562,.442-3.887,0-.088,.088-.265,.088-.354h13.163V25.686H22.24Zm0,44.349v-7.598h4.506c-.265,1.237-.353,2.651-.353,4.506,0,1.06,.088,2.12,.265,3.092h-4.417Zm6.184,0c-.176-.972-.265-2.032-.265-3.092,0-1.59,.088-3.092,.353-4.506,1.502-11.219,8.746-18.729,20.142-20.496v7.598c-7.244,1.413-11.927,6.096-13.252,12.898-.265,1.326-.442,2.739-.442,4.241,0,1.236,.088,2.296,.265,3.357,1.149,8.304,6.89,11.131,13.958,12.986l-1.59,6.979c-11.22-2.209-18.287-8.481-19.171-19.965Z" fill="#f1f1f1"/>
    </g>
  </g>
</svg>